<?xml version="1.0" standalone="no"?>
<svg version="1.0" xmlns="http://www.w3.org/2000/svg"
 width="100px" height="55px" viewBox="0 0 1280.000000 686.000000"
 preserveAspectRatio="xMidYMid meet">
<g transform="translate(0.000000,686.000000) scale(0.100000,-0.100000)"
fill="#000000" stroke="none">
<path d="M1946 4950 c-111 -19 -174 -48 -278 -127 -78 -59 -107 -70 -218 -78
-124 -10 -232 -38 -290 -75 -59 -38 -110 -103 -237 -300 -55 -85 -145 -225
-201 -311 -139 -216 -178 -292 -272 -529 -148 -373 -173 -471 -201 -763 -13
-146 -8 -372 9 -389 26 -26 13 -55 -37 -87 -110 -71 -131 -109 -142 -254 -5
-71 -13 -116 -23 -130 -9 -12 -23 -32 -33 -45 -38 -54 -22 -291 30 -420 23
-60 70 -102 112 -102 46 0 124 -34 186 -80 35 -26 82 -53 104 -59 47 -13 219
-26 540 -41 304 -14 717 -40 733 -45 7 -3 12 -24 12 -58 0 -139 61 -353 140
-490 265 -464 803 -674 1305 -511 176 58 320 150 454 289 133 140 226 304 270
478 l19 72 2789 3 2790 2 22 -81 c76 -287 297 -555 569 -693 77 -39 215 -83
316 -101 472 -82 959 172 1171 610 59 123 105 292 105 388 0 25 3 59 6 76 l7
31 226 0 c124 0 283 3 353 7 l127 6 12 72 c6 40 15 78 19 84 3 7 48 20 99 31
110 22 173 51 205 94 45 60 51 97 51 327 l0 216 -27 35 c-20 26 -32 62 -47
144 -55 289 -137 501 -253 651 -124 162 -393 291 -835 402 -351 88 -687 139
-1308 196 -263 24 -771 85 -1003 120 -169 25 -293 55 -359 86 -71 34 -418 262
-938 618 -198 135 -395 267 -438 293 -233 140 -410 170 -1207 208 -347 16
-386 23 -488 90 -90 58 -170 96 -254 122 l-73 23 -1785 1 c-982 1 -1807 -2
-1834 -6z m2741 -47 l721 -6 18 -31 c11 -17 25 -44 32 -60 l12 -29 -1102 6
c-1363 9 -2469 19 -2464 24 2 2 63 26 137 53 l134 49 896 0 c493 1 1220 -2
1616 -6z m1029 -118 c129 -23 128 -35 -3 -35 -138 0 -173 6 -173 31 0 24 51
25 176 4z m329 -145 c652 -22 1109 -65 1264 -117 150 -50 924 -568 1378 -920
93 -73 82 -50 174 -357 l59 -199 0 -613 0 -614 -1464 0 -1464 0 -6 73 c-8 110
-29 1347 -22 1354 3 3 486 0 1073 -7 1018 -12 1310 -10 1397 10 23 5 54 24 77
46 34 33 39 44 39 82 0 23 -7 56 -15 72 -22 42 -28 37 -10 -6 20 -48 19 -74
-4 -101 -26 -32 -31 -29 -31 16 0 52 -15 89 -49 126 -25 27 -51 81 -51 108 0
5 16 -5 35 -22 72 -63 47 -27 -35 51 -73 69 -251 211 -393 313 -23 17 -94 69
-157 116 -457 339 -685 437 -1120 479 -58 6 -332 21 -610 34 -476 23 -539 24
-1095 15 -324 -6 -727 -13 -894 -17 l-304 -7 -42 -185 c-206 -903 -204 -890
-162 -970 37 -71 61 -78 297 -90 302 -15 1091 -38 1520 -45 206 -3 398 -8 426
-11 l51 -5 7 -462 c3 -254 9 -576 13 -714 l6 -253 -889 0 -889 0 -44 96 c-66
143 -152 266 -265 380 -161 161 -347 272 -562 334 -43 13 -82 26 -86 29 -4 3
-3 69 1 146 7 127 18 186 121 640 62 275 147 653 189 840 l77 340 70 8 c224
25 1716 30 2389 7z m-2649 -16 l150 -6 -57 -251 c-291 -1287 -318 -1417 -325
-1563 l-7 -140 -86 14 c-112 18 -395 11 -501 -13 -575 -128 -969 -531 -1081
-1105 -23 -120 -38 -347 -22 -337 5 4 13 59 16 124 32 679 483 1195 1142 1308
156 27 496 18 528 -14 4 -4 5 -42 1 -84 l-7 -77 -56 8 c-31 4 -144 7 -251 6
-214 0 -277 -11 -450 -73 -430 -156 -729 -590 -756 -1097 l-7 -121 -111 3
c-462 15 -712 26 -718 32 -3 4 2 48 12 97 24 117 40 262 40 370 l0 85 305 0
c263 0 305 2 305 15 0 13 -43 15 -302 17 l-303 3 -2 80 c-3 103 -32 360 -43
390 -5 14 -23 28 -44 35 -41 13 -44 20 -16 38 11 6 31 35 46 63 41 81 57 177
57 334 0 200 -32 319 -102 378 -26 21 -44 26 -123 32 -51 4 -130 3 -176 -2
-99 -11 -97 -16 -46 116 l37 94 1123 -6 1123 -7 31 40 c59 74 205 418 352 828
72 202 102 310 93 335 -5 12 -145 15 -935 21 -512 3 -936 9 -944 12 -9 3 -59
-63 -153 -203 -251 -374 -439 -707 -497 -881 -26 -76 -26 -77 -61 -78 -19 0
-35 3 -35 8 0 5 14 44 30 87 80 208 348 683 563 999 l70 103 1021 -6 c561 -3
1089 -8 1172 -11z m-282 -91 c-25 -116 -76 -271 -199 -608 -143 -393 -179
-464 -255 -502 l-44 -23 -951 1 c-522 1 -963 4 -978 8 l-28 6 160 322 c193
389 253 496 385 680 l101 143 908 0 907 0 -6 -27z m2407 7 c20 -6 42 -17 48
-24 8 -10 22 -197 41 -548 16 -293 31 -562 34 -596 l5 -64 -122 6 c-67 3 -297
11 -512 17 -1180 31 -1312 37 -1339 54 -31 21 -66 91 -66 134 0 31 58 281 177
768 l57 232 44 7 c36 5 655 15 1422 22 96 1 191 -3 211 -8z m266 -4 c1 -1 20
-207 68 -751 19 -220 36 -417 39 -437 l4 -38 -101 6 c-56 4 -103 7 -103 8 -2
1 -21 305 -44 721 -11 193 -22 384 -25 425 l-6 75 83 -3 c46 -2 84 -5 85 -6z
m121 -103 c30 -288 113 -1052 118 -1085 l6 -38 -41 0 c-27 0 -41 4 -41 13 0 8
-29 276 -65 597 -36 321 -65 592 -65 602 0 14 8 18 39 18 l38 0 11 -107z m567
87 c191 -12 423 -34 503 -50 141 -26 358 -119 542 -230 173 -104 678 -462 679
-482 1 -3 -8 -4 -19 -1 -11 3 -46 2 -77 -2 l-58 -7 37 -19 c24 -12 43 -33 58
-63 37 -78 22 -83 -51 -16 l-67 60 -12 -43 c-7 -23 -15 -109 -19 -190 -4 -109
-10 -150 -20 -156 -7 -5 -151 -13 -320 -17 -370 -10 -1557 -12 -1566 -2 -4 4
-40 282 -79 617 l-72 611 186 0 c102 0 262 -5 355 -10z m2458 -1080 c95 -34
350 -67 1232 -160 856 -91 1297 -149 1515 -201 122 -28 301 -86 328 -104 47
-34 28 -40 -118 -40 -113 0 -142 -3 -155 -16 -22 -22 -22 -193 0 -274 29 -106
134 -277 185 -302 42 -20 225 -36 324 -28 50 4 116 6 146 6 80 -2 146 17 179
49 l28 28 38 -161 c21 -89 40 -169 43 -178 3 -15 -17 -17 -205 -21 -200 -3
-210 -4 -264 -30 -118 -55 -179 -148 -210 -322 -9 -56 -18 -91 -18 -78 -2 44
-50 218 -86 306 -70 173 -173 325 -310 454 -429 406 -1121 499 -1663 224 -467
-238 -753 -703 -802 -1307 -12 -153 -12 -145 -2 -145 5 0 14 63 20 139 23 270
78 473 183 683 237 473 720 767 1259 768 152 0 259 -13 387 -46 581 -151 975
-624 1010 -1209 3 -62 11 -113 17 -117 6 -4 -18 -8 -54 -8 -36 0 -75 -3 -87
-6 -22 -6 -23 -4 -23 54 0 189 -107 485 -238 658 -236 312 -652 494 -1078 471
-527 -28 -900 -319 -1104 -862 -40 -106 -92 -303 -110 -420 -20 -130 3 -115
-185 -115 l-165 0 0 946 0 945 -55 214 c-30 117 -55 216 -55 219 0 11 36 6 93
-14z m-8223 -305 c53 -28 92 -123 110 -274 6 -47 8 -107 5 -133 l-7 -48 -275
0 -275 0 7 63 c20 182 37 292 53 334 14 39 23 48 52 56 109 28 277 29 330 2z
m11285 -224 c27 -6 31 -11 36 -57 7 -55 26 -122 41 -140 6 -9 -23 -13 -111
-15 -73 -3 -125 -9 -132 -16 -18 -18 -1 -68 39 -114 37 -41 38 -41 135 -51 63
-7 111 -7 135 -1 l38 10 79 -84 c87 -94 87 -97 -4 -107 -62 -7 -278 10 -317
24 -31 12 -76 76 -130 185 -50 101 -64 162 -64 276 0 73 2 79 23 84 60 13 184
16 232 6z m192 -6 c29 -9 69 -31 94 -54 38 -33 42 -40 30 -55 -7 -9 -32 -21
-55 -26 -77 -20 -80 -26 -16 -27 119 -4 132 -28 29 -55 l-64 -17 67 0 c37 -1
79 4 94 9 24 10 26 14 21 53 l-6 42 25 -30 c14 -16 45 -72 70 -122 83 -168 70
-249 -39 -245 -83 4 -142 56 -251 224 -91 140 -116 194 -116 249 0 70 25 81
117 54z m-148 -232 c51 -6 54 -8 88 -60 19 -30 32 -58 28 -61 -4 -4 -15 4 -24
17 -30 46 -49 66 -56 60 -3 -4 3 -22 14 -40 24 -40 26 -49 8 -49 -7 0 -20 12
-29 28 -19 32 -58 70 -58 56 0 -5 7 -20 16 -32 8 -12 14 -30 12 -39 -2 -12
-11 -4 -31 25 -15 23 -32 42 -37 42 -13 0 -13 -6 5 -39 15 -29 12 -42 -8 -36
-7 2 -24 6 -39 9 -29 7 -63 47 -73 88 -7 25 -5 27 37 31 80 7 93 7 147 0z
m-11224 -50 c-4 -21 -9 -51 -11 -68 -17 -102 -66 -175 -127 -189 -37 -9 -231
-9 -308 0 -48 5 -64 12 -76 30 -21 32 -37 150 -29 206 l7 47 67 4 c37 2 161 4
275 5 l208 2 -6 -37z m2526 -29 c526 -188 849 -639 886 -1241 l6 -103 -76 0
c-104 0 -107 2 -107 64 0 28 -7 92 -15 141 -58 358 -205 623 -445 804 -81 61
-292 174 -364 195 -28 8 -41 17 -40 29 0 9 1 48 2 86 l2 69 39 -9 c21 -5 72
-20 112 -35z m2592 -991 c4 -104 7 -250 7 -325 l0 -138 -843 0 -844 0 -6 153
c-7 164 -26 297 -62 420 l-22 77 882 0 882 0 6 -187z m2987 -138 l0 -325
-1458 0 -1459 0 -6 182 c-4 99 -7 246 -7 325 l0 143 1465 0 1465 0 0 -325z
m-4696 -266 c3 -17 3 -42 0 -55 -4 -16 -1 -25 7 -28 8 -2 941 -9 2074 -15
1133 -6 2264 -14 2513 -17 l453 -6 -3 -27 -3 -26 -2365 2 c-1301 2 -2466 6
-2588 9 l-224 6 -14 34 c-8 19 -17 55 -21 79 -8 65 4 75 92 75 l73 0 6 -31z"/>
<path d="M3420 2999 c-32 -13 -40 -26 -40 -71 0 -67 4 -68 346 -68 327 0 321
-1 338 57 9 29 -17 79 -46 87 -38 10 -571 6 -598 -5z m145 -64 l0 -55 -66 0
c-84 0 -121 27 -97 73 13 25 44 36 108 36 l55 1 0 -55z m464 31 c26 -24 27
-40 1 -66 -19 -19 -33 -20 -227 -20 l-208 0 2 52 c1 29 2 54 2 56 1 2 93 2
205 0 184 -3 206 -5 225 -22z"/>
<path d="M6180 3003 c-52 -20 -68 -85 -30 -123 19 -19 33 -20 324 -20 l305 0
20 26 c26 33 27 65 2 95 l-19 24 -294 2 c-161 1 -300 -1 -308 -4z m140 -68 l0
-55 -63 0 c-71 0 -107 18 -107 54 0 40 28 53 118 55 l52 1 0 -55z m439 44 c42
-15 53 -55 21 -81 -20 -16 -43 -18 -226 -18 l-204 0 0 55 0 55 189 0 c111 0
201 -5 220 -11z"/>
<path d="M470 3130 c-30 -5 1 -7 90 -7 81 -1 123 2 105 7 -37 9 -135 9 -195 0z"/>
<path d="M510 3090 l-155 -6 188 -2 c123 -1 186 1 182 8 -3 6 -18 9 -33 8 -15
-1 -97 -5 -182 -8z"/>
<path d="M443 3053 c59 -2 154 -2 210 0 56 1 8 3 -108 3 -116 0 -161 -2 -102
-3z"/>
<path d="M443 3013 c59 -2 155 -2 215 0 59 1 10 3 -108 3 -118 0 -167 -2 -107
-3z"/>
<path d="M330 2980 c0 -7 75 -10 220 -10 128 1 220 5 220 11 0 5 -91 9 -220 9
-145 0 -220 -4 -220 -10z"/>
<path d="M432 2943 c65 -2 171 -2 236 0 64 1 11 3 -118 3 -129 0 -182 -2 -118
-3z"/>
<path d="M475 2910 l-160 -6 238 -2 c153 -1 237 2 237 8 0 10 -28 10 -315 0z"/>
<path d="M428 2873 c67 -2 177 -2 245 0 67 1 12 3 -123 3 -135 0 -190 -2 -122
-3z"/>
<path d="M433 2833 c71 -2 183 -2 250 0 67 1 10 3 -128 3 -137 0 -192 -2 -122
-3z"/>
<path d="M310 2800 c0 -6 86 -10 239 -10 149 0 242 4 246 10 4 7 -78 10 -239
10 -157 0 -246 -4 -246 -10z"/>
<path d="M423 2763 c70 -2 184 -2 255 0 70 1 12 3 -128 3 -140 0 -198 -2 -127
-3z"/>
<path d="M383 2718 c52 -5 156 -5 255 0 l167 9 -255 0 c-209 0 -239 -1 -167
-9z"/>
<path d="M12306 2649 c-43 -5 -80 -10 -82 -12 -3 -2 46 -7 107 -11 62 -3 114
-4 117 -2 2 3 2 12 -1 21 -7 16 -19 17 -141 4z"/>
<path d="M12322 2590 c-90 -10 -88 -20 4 -20 43 0 96 -3 118 -7 34 -5 38 -4
34 13 -4 22 -52 27 -156 14z"/>
<path d="M12375 2526 l-100 -12 113 -8 c62 -5 116 -6 119 -3 9 10 -5 37 -19
36 -7 -1 -58 -7 -113 -13z"/>
<path d="M12397 2470 c-74 -10 -85 -20 -20 -20 28 0 71 -3 97 -6 42 -6 46 -5
46 15 0 23 -15 25 -123 11z"/>
<path d="M318 2633 c-16 -2 -28 -9 -28 -14 0 -15 492 -7 498 9 3 9 -45 12
-220 11 -122 -1 -235 -4 -250 -6z"/>
<path d="M413 2583 c71 -2 183 -2 250 0 67 1 10 3 -128 3 -137 0 -192 -2 -122
-3z"/>
<path d="M408 2543 c67 -2 177 -2 245 0 67 1 12 3 -123 3 -135 0 -190 -2 -122
-3z"/>
<path d="M408 2513 c67 -2 177 -2 245 0 67 1 12 3 -123 3 -135 0 -190 -2 -122
-3z"/>
<path d="M402 2473 c65 -2 171 -2 235 0 65 1 12 3 -117 3 -129 0 -182 -2 -118
-3z"/>
<path d="M310 2440 c0 -6 77 -10 210 -10 133 0 210 4 210 10 0 6 -77 10 -210
10 -133 0 -210 -4 -210 -10z"/>
<path d="M395 2399 c51 -10 232 -10 265 1 15 5 -43 8 -140 8 -113 0 -152 -3
-125 -9z"/>
</g>
</svg>
